<?xml version="1.0" standalone="no"?>
<!DOCTYPE svg PUBLIC "-//W3C//DTD SVG 20010904//EN"
 "http://www.w3.org/TR/2001/REC-SVG-20010904/DTD/svg10.dtd">
<svg version="1.0" xmlns="http://www.w3.org/2000/svg"
 width="275.000000pt" height="83.000000pt" viewBox="0 0 275.000000 83.000000"
 preserveAspectRatio="xMidYMid meet">
<metadata>
Created by potrace 1.10, written by Peter Selinger 2001-2011
</metadata>
<g transform="translate(0.000000,83.000000) scale(0.100000,-0.100000)"
fill="#000000" stroke="none">
<path d="M282 604 c-93 -46 -142 -127 -142 -234 0 -107 49 -188 142 -234 119
-59 259 -20 338 96 40 58 51 150 28 220 -10 28 -12 51 -7 66 7 18 3 31 -17 57
-30 39 -46 47 -76 36 -12 -4 -36 -2 -57 5 -62 23 -150 17 -209 -12z m203 -16
c14 -6 25 -15 25 -19 0 -16 -20 -19 -68 -8 -65 13 -120 -1 -169 -44 -91 -80
-95 -197 -9 -283 74 -75 174 -81 256 -15 68 55 82 101 68 230 -4 36 18 36 31
0 16 -48 13 -129 -8 -174 -22 -50 -86 -109 -136 -125 -20 -7 -65 -10 -99 -8
-179 11 -273 225 -161 371 54 72 193 110 270 75z m123 -38 c23 -5 22 -6 -12
-39 -20 -19 -39 -30 -46 -26 -7 5 -38 -19 -81 -61 -38 -37 -72 -65 -76 -61 -4
4 23 38 59 75 36 37 63 73 61 80 -3 8 10 29 28 48 33 34 34 35 39 12 3 -12 16
-25 28 -28z m-143 -30 c21 -8 25 -13 16 -23 -7 -9 -29 -12 -69 -9 -52 4 -61 1
-90 -23 -89 -75 -40 -215 77 -215 83 0 125 52 119 148 -4 66 14 81 32 26 46
-137 -92 -258 -222 -195 -62 29 -92 84 -86 155 5 60 27 95 78 125 38 22 103
27 145 11z m-37 -72 c-4 -11 -16 -19 -58 -38 -21 -10 -25 -64 -6 -79 19 -16
67 -10 76 9 5 8 13 28 19 43 14 35 31 26 31 -14 0 -42 -48 -89 -90 -89 -43 0
-90 47 -90 90 0 43 47 90 90 90 20 0 30 -4 28 -12z"/>
<path d="M1335 599 c-11 -4 -41 -5 -68 -2 -52 6 -81 -10 -98 -55 -8 -21 -14
-22 -86 -21 -57 2 -87 -2 -111 -15 -37 -19 -45 -16 -91 37 -20 24 -30 28 -64
25 -35 -3 -45 -9 -69 -43 -30 -45 -34 -78 -13 -115 8 -14 14 -42 15 -63 0 -72
40 -116 104 -117 23 0 47 7 58 17 17 15 21 15 61 -4 37 -19 51 -20 127 -13 47
5 103 6 126 3 23 -3 50 0 62 6 14 7 23 8 27 1 10 -17 61 -11 87 10 31 24 48
11 48 -35 0 -48 31 -70 94 -70 63 1 118 31 136 76 11 25 17 29 34 23 12 -4 59
-9 105 -11 105 -4 125 7 138 74 l10 48 17 -39 c15 -34 16 -46 5 -83 -10 -38
-10 -46 6 -63 25 -27 76 -26 102 3 12 12 41 62 64 112 l43 90 4 -39 c3 -31 -2
-44 -22 -65 -33 -34 -33 -74 -3 -105 22 -22 31 -24 119 -22 104 1 141 16 159
63 5 14 9 100 8 191 -1 147 -3 166 -20 183 -21 21 -60 25 -91 8 -14 -8 -23 -8
-31 0 -16 16 -73 13 -91 -5 -9 -8 -19 -26 -22 -40 -5 -20 -12 -24 -41 -24 -28
0 -42 -8 -68 -36 -31 -34 -33 -35 -40 -15 -11 35 -47 52 -106 51 -30 -1 -65
-1 -79 -1 -15 1 -34 -9 -48 -25 l-23 -26 -20 26 c-19 24 -27 26 -77 25 -32 -2
-93 -1 -138 0 -59 2 -89 -1 -111 -13 -28 -14 -32 -14 -37 0 -3 9 -6 26 -6 38
0 38 -49 70 -85 55z m-55 -184 l0 -155 -35 0 -35 0 0 155 0 155 35 0 35 0 0
-155z m110 0 l0 -155 -35 0 -35 0 0 155 0 155 35 0 35 0 0 -155z m930 125 c0
-28 -3 -30 -35 -30 -32 0 -35 2 -35 30 0 28 3 30 35 30 32 0 35 -2 35 -30z
m120 0 c0 -28 -2 -30 -37 -30 -35 0 -38 2 -39 30 -1 28 1 30 37 30 37 0 39 -2
39 -30z m-1588 -25 c-4 -22 -1 -25 22 -25 22 0 26 -4 26 -30 0 -25 -4 -30 -26
-30 -24 0 -25 -2 -22 -52 3 -48 5 -53 26 -52 20 1 23 -4 20 -30 -3 -27 -7 -31
-36 -34 -55 -5 -72 18 -72 100 0 61 -2 68 -20 68 -16 0 -20 7 -20 30 0 23 4
30 20 30 17 0 19 5 14 25 -6 24 -4 25 34 25 36 0 39 -2 34 -25z m229 -35 c13
-7 19 -7 19 0 0 5 15 10 33 10 l32 0 0 -115 0 -115 -32 0 c-17 0 -33 5 -35 11
-3 9 -9 9 -25 0 -36 -19 -71 -13 -105 18 -30 26 -33 35 -33 84 0 41 5 61 20
77 34 38 87 50 126 30z m490 0 c13 -7 19 -7 19 0 0 5 16 10 35 10 l35 0 0
-124 c0 -117 -2 -127 -24 -152 -20 -24 -32 -28 -90 -32 l-66 -4 0 31 c0 31 1
32 34 26 39 -8 76 8 76 31 0 12 -5 14 -17 9 -49 -21 -82 -18 -112 12 -40 40
-49 91 -25 140 28 55 86 78 135 53z m201 -72 c3 -71 6 -83 21 -86 38 -7 57 26
57 100 l0 68 35 0 35 0 0 -115 0 -115 -35 0 c-28 0 -35 4 -35 20 0 20 0 20
-20 0 -24 -24 -51 -25 -89 -5 -37 19 -41 31 -41 131 l0 84 35 0 34 0 3 -82z
m275 12 c15 -38 30 -70 33 -70 3 0 17 30 31 68 25 65 27 67 64 70 28 3 36 0
32 -10 -3 -7 -34 -77 -69 -155 l-63 -142 -38 -1 -37 0 23 47 24 47 -48 104
c-27 57 -49 106 -49 108 0 2 15 4 34 4 33 0 35 -3 63 -70z m271 -50 c-3 -104
-1 -120 14 -123 31 -9 38 15 38 130 l0 113 36 0 c36 0 36 -1 30 -31 -3 -17 -6
-80 -6 -140 0 -127 -8 -142 -74 -137 -35 3 -40 6 -38 23 3 19 2 18 -18 -3 -17
-18 -30 -22 -63 -20 -39 3 -42 5 -45 36 -3 30 -1 32 27 32 l31 0 0 120 0 120
36 0 35 0 -3 -120z"/>
<path d="M1012 418 c-16 -16 -16 -70 0 -86 30 -30 88 -2 88 42 0 43 -59 73
-88 44z"/>
<path d="M1505 414 c-26 -26 -16 -77 18 -88 36 -13 61 2 65 37 7 58 -45 89
-83 51z"/>
</g>
</svg>
